<svg width="17" height="17" viewBox="0 0 17 17" fill="none" xmlns="http://www.w3.org/2000/svg">
<path d="M16.0514 16.0659C14.1996 16.0659 12.3699 15.6624 10.5625 14.8553C8.75511 14.0481 7.11067 12.9035 5.62919 11.4215C4.1477 9.9394 3.00341 8.29496 2.1963 6.48814C1.38919 4.68133 0.985334 2.8517 0.984741 0.999251C0.984741 0.732585 1.07363 0.510362 1.25141 0.332585C1.42919 0.154807 1.65141 0.065918 1.91807 0.065918H5.51807C5.72548 0.065918 5.91067 0.136436 6.07363 0.277473C6.23659 0.41851 6.33289 0.585029 6.36252 0.777029L6.9403 3.88814C6.96993 4.12518 6.96252 4.32518 6.91807 4.48814C6.87363 4.6511 6.79215 4.79184 6.67363 4.91036L4.51807 7.08814C4.81437 7.63629 5.16607 8.16577 5.57319 8.67659C5.9803 9.1874 6.42859 9.68014 6.91807 10.1548C7.37733 10.6141 7.85882 11.0401 8.36252 11.433C8.86622 11.8259 9.39956 12.185 9.96252 12.5104L12.0514 10.4215C12.1847 10.2881 12.359 10.1883 12.5741 10.1219C12.7892 10.0555 13.0001 10.0369 13.207 10.0659L16.2736 10.6881C16.481 10.7474 16.6514 10.855 16.7847 11.0108C16.9181 11.1667 16.9847 11.3406 16.9847 11.5326V15.1326C16.9847 15.3993 16.8959 15.6215 16.7181 15.7993C16.5403 15.977 16.3181 16.0659 16.0514 16.0659Z" fill="white"/>
</svg>
