<svg width="17" height="20" viewBox="0 0 17 20" fill="none" xmlns="http://www.w3.org/2000/svg">
<path fill-rule="evenodd" clip-rule="evenodd" d="M9.35672 19.4861L9.34712 19.4879L9.28516 19.5184L9.2677 19.5219L9.25548 19.5184L9.19352 19.4879C9.18421 19.485 9.17723 19.4864 9.17257 19.4922L9.16908 19.501L9.15425 19.8745L9.15861 19.8919L9.16734 19.9033L9.2581 19.9679L9.27119 19.9714L9.28167 19.9679L9.37243 19.9033L9.3829 19.8893L9.38639 19.8745L9.37156 19.5018C9.36923 19.4925 9.36429 19.4873 9.35672 19.4861ZM9.588 19.3875L9.57665 19.3892L9.41519 19.4704L9.40647 19.4791L9.40385 19.4887L9.41956 19.864L9.42392 19.8745L9.4309 19.8806L9.60632 19.9618C9.61738 19.9647 9.62581 19.9623 9.63163 19.9548L9.63512 19.9426L9.60545 19.4067C9.60254 19.3962 9.59672 19.3898 9.588 19.3875ZM8.96399 19.3892C8.96014 19.3869 8.95555 19.3862 8.95116 19.3871C8.94677 19.3881 8.94292 19.3907 8.94043 19.3945L8.93519 19.4067L8.90552 19.9426C8.9061 19.953 8.91105 19.96 8.92035 19.9635L8.93344 19.9618L9.10886 19.8806L9.11759 19.8736L9.12108 19.864L9.13592 19.4887L9.1333 19.4783L9.12457 19.4695L8.96399 19.3892Z" fill="white"/>
<path fill-rule="evenodd" clip-rule="evenodd" d="M8.83923 0.933594C10.9224 0.933594 12.9203 1.76113 14.3933 3.23416C15.8663 4.70718 16.6938 6.70503 16.6938 8.78821C16.6938 11.471 15.2311 13.6668 13.6899 15.2421C12.9199 16.0206 12.0796 16.7265 11.1799 17.3506L10.8081 17.6037L10.6336 17.7198L10.3046 17.9292L10.0113 18.1081L9.64826 18.3193C9.40183 18.46 9.12298 18.534 8.83923 18.534C8.55548 18.534 8.27664 18.46 8.03021 18.3193L7.66715 18.1081L7.21333 17.8289L7.04576 17.7198L6.68794 17.4815C5.71731 16.8248 4.81322 16.0748 3.98857 15.2421C2.44732 13.6659 0.984619 11.471 0.984619 8.78821C0.984619 6.70503 1.81216 4.70718 3.28518 3.23416C4.75821 1.76113 6.75606 0.933594 8.83923 0.933594ZM8.83923 2.67906C7.21899 2.67906 5.6651 3.3227 4.51942 4.46839C3.37373 5.61408 2.73009 7.16796 2.73009 8.78821C2.73009 10.8147 3.84021 12.5933 5.23571 14.0211C5.83574 14.6285 6.4843 15.186 7.17493 15.6881L7.57464 15.9726C7.7038 16.0627 7.82802 16.1465 7.9473 16.2239L8.28766 16.4421L8.58701 16.6245L8.83923 16.772L9.23633 16.5372L9.55662 16.3365C9.7271 16.2283 9.9095 16.107 10.1038 15.9726L10.5035 15.6881C11.1942 15.186 11.8427 14.6285 12.4428 14.0211C13.8383 12.5942 14.9484 10.8147 14.9484 8.78821C14.9484 7.16796 14.3047 5.61408 13.159 4.46839C12.0134 3.3227 10.4595 2.67906 8.83923 2.67906ZM8.83923 5.29727C9.76509 5.29727 10.653 5.66506 11.3077 6.31974C11.9624 6.97442 12.3302 7.86235 12.3302 8.78821C12.3302 9.71406 11.9624 10.602 11.3077 11.2567C10.653 11.9114 9.76509 12.2791 8.83923 12.2791C7.91338 12.2791 7.02544 11.9114 6.37077 11.2567C5.71609 10.602 5.34829 9.71406 5.34829 8.78821C5.34829 7.86235 5.71609 6.97442 6.37077 6.31974C7.02544 5.66506 7.91338 5.29727 8.83923 5.29727ZM8.83923 7.04274C8.37631 7.04274 7.93234 7.22664 7.605 7.55397C7.27766 7.88131 7.09376 8.32528 7.09376 8.78821C7.09376 9.25113 7.27766 9.6951 7.605 10.0224C7.93234 10.3498 8.37631 10.5337 8.83923 10.5337C9.30216 10.5337 9.74613 10.3498 10.0735 10.0224C10.4008 9.6951 10.5847 9.25113 10.5847 8.78821C10.5847 8.32528 10.4008 7.88131 10.0735 7.55397C9.74613 7.22664 9.30216 7.04274 8.83923 7.04274Z" fill="white"/>
</svg>
