<svg width="520" height="81" viewBox="0 0 520 81" fill="none" xmlns="http://www.w3.org/2000/svg">
<path d="M115.535 33.8394C113.172 32.5331 111.206 30.6126 109.844 28.2808C108.483 25.9489 107.776 23.2926 107.8 20.5925C107.771 17.8699 108.497 15.1924 109.898 12.8577C111.267 10.5492 113.229 8.64867 115.579 7.35291C117.999 6.00638 120.729 5.31391 123.498 5.3438C126.17 5.30589 128.804 5.97895 131.13 7.29404C133.38 8.55773 135.238 10.4164 136.502 12.6664L131.954 15.8751C129.879 12.5683 127.072 10.9173 123.535 10.9222C121.823 10.8946 120.136 11.3267 118.648 12.1733C117.222 12.9884 116.05 14.1833 115.263 15.6249C114.428 17.1641 114.004 18.893 114.034 20.644C114.003 22.3857 114.427 24.1054 115.263 25.6336C116.052 27.0647 117.224 28.2474 118.648 29.0484C120.142 29.8775 121.827 30.2989 123.535 30.2701C127.067 30.2701 129.874 28.6216 131.954 25.3246L136.502 28.5332C135.257 30.7899 133.403 32.6514 131.152 33.9056C128.81 35.2149 126.166 35.885 123.483 35.8485C120.704 35.8839 117.964 35.1912 115.535 33.8394Z" fill="white"/>
<path d="M151.272 35.8118C149.187 35.8356 147.133 35.3075 145.319 34.2811C143.553 33.2837 142.082 31.8363 141.057 30.0862C140.279 28.7731 139.773 27.3173 139.567 25.8048C139.361 24.2924 139.461 22.7541 139.86 21.2809C140.26 19.8077 140.951 18.4296 141.892 17.228C142.833 16.0265 144.006 15.026 145.341 14.2856C147.167 13.2686 149.227 12.746 151.316 12.7696C153.407 12.7475 155.466 13.2781 157.285 14.3077C159.062 15.2924 160.547 16.7294 161.59 18.4731C162.626 20.2328 163.173 22.2376 163.173 24.2797C163.173 26.3217 162.626 28.3266 161.59 30.0862C160.546 31.8442 159.052 33.2922 157.263 34.2811C155.433 35.3035 153.368 35.8311 151.272 35.8118ZM155.394 28.5923C155.934 28.0227 156.356 27.3514 156.636 26.6175C156.915 25.8835 157.045 25.1013 157.02 24.3165C157.078 22.7143 156.501 21.154 155.416 19.9744C154.884 19.4279 154.247 18.9934 153.545 18.6968C152.842 18.4002 152.087 18.2474 151.324 18.2474C150.561 18.2474 149.806 18.4002 149.103 18.6968C148.4 18.9934 147.764 19.4279 147.232 19.9744C146.147 21.1575 145.571 22.7196 145.628 24.3238C145.575 25.9053 146.152 27.443 147.232 28.5996C148.318 29.6836 149.79 30.2924 151.324 30.2924C152.858 30.2924 154.33 29.6836 155.416 28.5996L155.394 28.5923Z" fill="white"/>
<path d="M190.005 13.2406V32.8681C190.005 36.4595 188.965 39.1923 186.885 41.0665C184.804 42.9407 182.042 43.8876 178.598 43.9072C174.597 43.9672 170.724 42.5015 167.765 39.808L170.929 35.6132C172.011 36.4495 173.184 37.1605 174.425 37.7327C175.587 38.233 176.84 38.4837 178.105 38.4686C179.643 38.5461 181.159 38.0798 182.388 37.1513C182.937 36.6684 183.368 36.0652 183.646 35.3887C183.925 34.7122 184.043 33.9806 183.992 33.2508V32.0513C183.176 32.9227 182.168 33.5928 181.049 34.0089C179.832 34.4709 178.538 34.6982 177.236 34.6786C175.333 34.708 173.456 34.2305 171.798 33.295C170.201 32.3833 168.895 31.0387 168.03 29.4166C167.1 27.6613 166.632 25.6988 166.668 23.7131C166.627 21.7147 167.103 19.7396 168.052 17.9801C168.934 16.3741 170.246 15.0461 171.842 14.1458C173.491 13.2311 175.351 12.7642 177.236 12.7917C178.687 12.7651 180.126 13.0539 181.453 13.638C182.646 14.1692 183.683 14.9979 184.463 16.0446V13.2774L190.005 13.2406ZM182.425 27.9594C182.994 27.3804 183.435 26.6879 183.719 25.9271C184.003 25.1663 184.124 24.3543 184.073 23.5438C184.073 21.6402 183.531 20.2124 182.447 19.2606C181.315 18.3187 179.884 17.8122 178.412 17.8324C176.94 17.8526 175.523 18.3983 174.418 19.371C173.865 19.9199 173.435 20.5792 173.154 21.3059C172.874 22.0325 172.75 22.8102 172.791 23.5879C172.756 24.3798 172.885 25.1704 173.17 25.91C173.455 26.6496 173.89 27.3223 174.447 27.8858C175.515 28.9172 176.938 29.4991 178.423 29.5115C179.907 29.5238 181.34 28.9656 182.425 27.9521V27.9594Z" fill="white"/>
<path d="M214.041 15.2053C215.577 16.9882 216.368 19.2943 216.248 21.6448V35.3333H210.273V22.4249C210.32 21.2828 209.912 20.1687 209.139 19.3266C208.757 18.937 208.298 18.6311 207.791 18.4284C207.284 18.2257 206.741 18.1306 206.196 18.1491C205.64 18.1294 205.086 18.2237 204.569 18.4262C204.051 18.6287 203.58 18.9351 203.186 19.3266C202.788 19.7356 202.478 20.2212 202.274 20.7539C202.071 21.2865 201.978 21.8551 202.001 22.4249V35.3112H195.981V13.233H201.515V15.2421C202.323 14.4462 203.285 13.8228 204.341 13.4096C205.5 12.9602 206.734 12.7354 207.977 12.7473C209.105 12.6954 210.231 12.8882 211.278 13.3125C212.324 13.7368 213.267 14.3825 214.041 15.2053Z" fill="white"/>
<path d="M225.05 8.92061C224.548 8.93057 224.049 8.84072 223.581 8.65628C223.114 8.47184 222.688 8.19648 222.327 7.84613C221.969 7.5098 221.685 7.10235 221.494 6.6499C221.303 6.19746 221.208 5.71001 221.216 5.21882C221.204 4.71952 221.297 4.2233 221.489 3.76199C221.68 3.30067 221.966 2.88444 222.327 2.54C222.688 2.19065 223.114 1.91641 223.582 1.73323C224.049 1.55004 224.548 1.46155 225.05 1.47289C226.07 1.45222 227.057 1.83582 227.795 2.54C228.164 2.87988 228.456 3.29476 228.652 3.75679C228.847 4.21882 228.942 4.71731 228.929 5.21882C228.938 5.71219 228.841 6.20179 228.646 6.65488C228.45 7.10797 228.16 7.5141 227.795 7.84613C227.058 8.5523 226.071 8.9385 225.05 8.92061ZM222.062 13.2406H228.082V35.3187H222.062V13.2406Z" fill="white"/>
<path d="M247.651 35.3113L242.926 28.2684L238.157 35.3113H231.423L239.519 23.941L231.953 13.2405H238.687L242.919 19.6211L247.114 13.2405H253.84L246.267 23.8969L254.363 35.3113H247.651Z" fill="white"/>
<path d="M270.612 5.88843H290.409V11.327H276.632V17.2955H286.751V22.4471H276.632V29.8948H290.939V35.3334H270.612V5.88843Z" fill="white"/>
<path d="M317.381 1.87012V35.3112H311.854V32.5882C311.105 33.6383 310.089 34.4691 308.911 34.9947C307.613 35.5756 306.204 35.8669 304.782 35.8484C302.845 35.8851 300.937 35.3749 299.277 34.3766C297.653 33.3751 296.334 31.947 295.465 30.2479C294.555 28.4043 294.082 26.3759 294.082 24.3199C294.082 22.264 294.555 20.2356 295.465 18.392C296.334 16.6951 297.653 15.2695 299.277 14.2707C300.936 13.2701 302.845 12.7598 304.782 12.7988C306.01 12.7318 307.239 12.932 308.382 13.3856C309.526 13.8392 310.557 14.5354 311.405 15.4261V1.87012H317.381ZM309.801 28.8202C310.9 27.7997 311.45 26.2935 311.45 24.3015C311.503 23.4741 311.385 22.6444 311.101 21.8653C310.817 21.0862 310.375 20.3745 309.801 19.7755C308.724 18.7444 307.285 18.1762 305.794 18.1927C304.303 18.2092 302.878 18.8091 301.824 19.8638C301.262 20.4485 300.825 21.1417 300.54 21.9009C300.256 22.6602 300.129 23.4695 300.168 24.2795C300.131 25.0873 300.257 25.8942 300.538 26.6525C300.819 27.4109 301.248 28.1054 301.801 28.6951C302.327 29.243 302.961 29.6747 303.663 29.9624C304.365 30.2501 305.12 30.3875 305.879 30.3657C307.339 30.3875 308.748 29.832 309.801 28.8202Z" fill="white"/>
<path d="M328.104 34.5754C326.557 33.7574 325.279 32.5103 324.424 30.984C323.52 29.3322 323.066 27.472 323.107 25.5895V13.2405H329.127V26.0826C329.094 26.6431 329.18 27.2042 329.378 27.7294C329.576 28.2546 329.883 28.7323 330.278 29.1313C330.673 29.5304 331.147 29.8419 331.67 30.0457C332.193 30.2495 332.753 30.341 333.314 30.3143C333.858 30.3317 334.399 30.2382 334.905 30.0395C335.411 29.8409 335.872 29.5412 336.258 29.1588C336.657 28.7555 336.968 28.274 337.172 27.7446C337.376 27.2152 337.468 26.6494 337.443 26.0826V13.2405H343.456V25.5895C343.499 27.4714 343.047 29.3316 342.146 30.984C341.298 32.5012 340.037 33.7466 338.51 34.5754C336.929 35.4301 335.156 35.8682 333.358 35.8485C331.527 35.8767 329.719 35.4386 328.104 34.5754Z" fill="white"/>
<path d="M353.825 34.3398C352.056 33.3391 350.579 31.893 349.542 30.145C348.505 28.3693 347.959 26.3503 347.959 24.2943C347.959 22.2383 348.505 20.2192 349.542 18.4435C350.579 16.7088 352.057 15.2794 353.825 14.3002C355.642 13.2818 357.696 12.759 359.779 12.7842C361.778 12.7491 363.75 13.2579 365.482 14.256C367.11 15.2163 368.45 16.5965 369.361 18.2522L365.159 21.4462C364.553 20.518 363.773 19.7159 362.862 19.0838C361.967 18.5058 360.918 18.2108 359.852 18.2375C359.075 18.2128 358.302 18.3529 357.583 18.6484C356.863 18.9439 356.215 19.3883 355.68 19.9522C354.631 21.1483 354.052 22.6849 354.052 24.2758C354.052 25.8668 354.631 27.4034 355.68 28.5995C356.214 29.1649 356.862 29.6103 357.581 29.9059C358.301 30.2016 359.075 30.3408 359.852 30.3142C360.893 30.3351 361.917 30.0484 362.796 29.49C363.724 28.8709 364.522 28.0758 365.144 27.1497L369.331 30.3584C368.413 32.0218 367.066 33.4092 365.431 34.3766C363.707 35.3761 361.742 35.8851 359.749 35.8485C357.676 35.8735 355.633 35.3532 353.825 34.3398Z" fill="white"/>
<path d="M389.753 15.2055C391.466 16.8246 392.322 19.1649 392.322 22.2264V35.3335H386.787V33.1919C385.952 34.0432 384.95 34.7122 383.844 35.1568C382.634 35.6505 381.338 35.9006 380.032 35.8928C378.006 36.0046 376.015 35.3415 374.461 34.0382C373.791 33.4463 373.259 32.7142 372.905 31.8938C372.55 31.0733 372.38 30.1849 372.407 29.2914C372.371 28.3834 372.557 27.4804 372.95 26.6608C373.342 25.8412 373.929 25.1299 374.659 24.5888C376.131 23.4407 378.184 22.874 380.745 22.874H386.272V21.829C386.302 21.3074 386.224 20.7854 386.043 20.2954C385.861 19.8054 385.581 19.358 385.22 18.9809C384.805 18.6161 384.323 18.3373 383.8 18.1604C383.277 17.9835 382.724 17.9122 382.173 17.9506C381.116 17.9346 380.073 18.1878 379.141 18.6865C378.092 19.3029 377.143 20.0773 376.33 20.9827L373.209 17.303C374.36 15.8611 375.827 14.7021 377.495 13.915C379.164 13.1278 380.991 12.7335 382.835 12.7622C385.74 12.7573 388.046 13.5717 389.753 15.2055ZM384.962 30.2261C385.4 29.8306 385.746 29.3448 385.978 28.8022C386.209 28.2596 386.32 27.6732 386.302 27.0836V26.8187H381.577C380.78 26.7678 379.986 26.963 379.303 27.378C379.037 27.5642 378.824 27.8157 378.683 28.1083C378.543 28.4009 378.48 28.7247 378.501 29.0485C378.488 29.3908 378.561 29.7309 378.712 30.038C378.864 30.3451 379.09 30.6095 379.369 30.8074C380.043 31.2683 380.85 31.4957 381.665 31.4551C382.885 31.4823 384.068 31.0335 384.962 30.204V30.2261Z" fill="white"/>
<path d="M412.259 30.2701V35.3113C410.904 35.6583 409.513 35.8387 408.115 35.8486C405.324 35.8486 403.155 35.1568 401.61 33.7732C400.064 32.3896 399.291 30.3167 399.291 27.5545V18.3258H395.81V13.2405H399.291V7.66943H405.304V13.2405H411.552V18.3258H405.304V27.0173C405.254 27.5061 405.317 27.9998 405.488 28.4604C405.659 28.921 405.933 29.3362 406.29 29.674C407.217 30.2673 408.313 30.5412 409.41 30.4541C409.793 30.4541 410.787 30.3879 412.259 30.2701Z" fill="white"/>
<path d="M419.618 8.92061C419.115 8.93057 418.616 8.84072 418.149 8.65628C417.681 8.47184 417.255 8.19648 416.895 7.84613C416.535 7.51094 416.25 7.1037 416.059 6.65099C415.867 6.19828 415.774 5.71026 415.784 5.21882C415.77 4.71928 415.862 4.22251 416.054 3.76092C416.245 3.29934 416.532 2.88332 416.895 2.54C417.255 2.19065 417.682 1.91641 418.149 1.73323C418.617 1.55004 419.116 1.46155 419.618 1.47289C420.638 1.45222 421.625 1.83582 422.363 2.54C422.732 2.87988 423.024 3.29476 423.219 3.75679C423.415 4.21882 423.509 4.71731 423.496 5.21882C423.505 5.71219 423.409 6.20179 423.213 6.65488C423.018 7.10797 422.728 7.5141 422.363 7.84613C421.625 8.5523 420.639 8.9385 419.618 8.92061ZM416.674 13.2406H422.694V35.3187H416.674V13.2406Z" fill="white"/>
<path d="M439.172 35.8116C437.089 35.8363 435.037 35.3081 433.225 34.2809C431.458 33.2855 429.987 31.8377 428.964 30.086C427.942 28.3175 427.404 26.311 427.404 24.2684C427.404 22.2259 427.942 20.2194 428.964 18.4508C429.986 16.6986 431.467 15.2584 433.247 14.2854C435.079 13.2838 437.132 12.7588 439.22 12.7588C441.307 12.7588 443.361 13.2838 445.192 14.2854C446.966 15.2743 448.45 16.7104 449.497 18.4508C450.533 20.2105 451.079 22.2154 451.079 24.2574C451.079 26.2995 450.533 28.3043 449.497 30.064C448.449 31.8189 446.956 33.266 445.17 34.2588C443.34 35.2898 441.272 35.8251 439.172 35.8116ZM443.3 28.5921C443.841 28.0225 444.263 27.3513 444.542 26.6173C444.822 25.8833 444.952 25.1012 444.927 24.3163C444.975 22.7161 444.391 21.1613 443.3 19.989C442.768 19.4424 442.132 19.008 441.429 18.7114C440.726 18.4148 439.971 18.2619 439.209 18.2619C438.446 18.2619 437.691 18.4148 436.988 18.7114C436.285 19.008 435.649 19.4424 435.117 19.989C434.032 21.172 433.456 22.7342 433.512 24.3384C433.46 25.9198 434.037 27.4575 435.117 28.6142C436.203 29.6981 437.674 30.3069 439.209 30.3069C440.743 30.3069 442.214 29.6981 443.3 28.6142V28.5921Z" fill="white"/>
<path d="M473.813 15.2054C475.349 16.9884 476.139 19.2944 476.02 21.6449V35.3334H470.045V22.425C470.072 21.8603 469.987 21.2958 469.795 20.764C469.603 20.2323 469.308 19.7438 468.926 19.3267C468.544 18.9364 468.085 18.63 467.578 18.4273C467.071 18.2245 466.528 18.1298 465.982 18.1492C465.427 18.1295 464.873 18.2238 464.355 18.4263C463.838 18.6289 463.367 18.9353 462.972 19.3267C462.576 19.7361 462.267 20.2219 462.064 20.7546C461.862 21.2873 461.77 21.8557 461.795 22.425V35.3113H455.775V13.2331H461.302V15.2422C462.111 14.4447 463.075 13.8211 464.135 13.4098C465.291 12.9604 466.523 12.7356 467.763 12.7474C468.889 12.6967 470.013 12.8901 471.057 13.3144C472.101 13.7387 473.041 14.3838 473.813 15.2054Z" fill="white"/>
<path d="M518.837 23.8968C516.997 26.5462 515.69 28.3443 514.915 29.2913L519.868 35.3112H512.825L511.036 33.1034C508.759 34.8828 505.949 35.8422 503.059 35.8264C501.323 35.8605 499.601 35.5086 498.018 34.7961C496.63 34.1716 495.449 33.1661 494.61 31.8965C493.784 30.6253 493.356 29.1365 493.381 27.6207C493.37 26.0847 493.83 24.5823 494.699 23.3154C496.01 21.5914 497.564 20.0668 499.313 18.7894C498.514 17.7923 497.855 16.6904 497.355 15.5145C496.942 14.5183 496.73 13.4504 496.73 12.372C496.692 11.4217 496.858 10.4743 497.219 9.59426C497.58 8.71421 498.126 7.92215 498.82 7.27195C500.343 5.9311 502.327 5.23446 504.354 5.32907C506.283 5.24755 508.174 5.89071 509.653 7.13212C510.32 7.70719 510.85 8.42372 511.205 9.22958C511.561 10.0354 511.732 10.9103 511.706 11.7906C511.712 13.1729 511.319 14.5274 510.573 15.6911C509.556 17.1764 508.315 18.4947 506.893 19.5989L511.213 24.8094C512.14 23.5068 512.987 22.2851 513.759 21.1297C514.289 20.3938 514.826 19.6578 515.364 18.8556L520 22.1526L518.837 23.8968ZM507.563 28.8939L502.477 22.7414C501.573 23.4413 500.751 24.2412 500.027 25.1258C499.613 25.6858 499.394 26.3653 499.401 27.0614C499.384 27.5383 499.476 28.0128 499.67 28.4489C499.864 28.885 500.154 29.2712 500.52 29.5783C501.333 30.2441 502.362 30.5873 503.412 30.5423C504.947 30.5005 506.417 29.9165 507.563 28.8939ZM504.258 10.4954C503.689 10.464 503.13 10.6539 502.698 11.0252C502.504 11.2159 502.352 11.4457 502.253 11.6994C502.154 11.9532 502.11 12.2251 502.124 12.4971C502.13 13.0106 502.259 13.5152 502.499 13.969C502.888 14.6603 503.344 15.3111 503.861 15.9119L503.949 15.8677C504.642 15.3552 505.256 14.7455 505.774 14.0573C506.124 13.5706 506.312 12.9862 506.312 12.3867C506.326 12.1278 506.285 11.8689 506.193 11.6267C506.1 11.3845 505.958 11.1646 505.774 10.9811C505.352 10.6205 504.805 10.4407 504.251 10.4806L504.258 10.4954Z" fill="white"/>
<path d="M114.1 54.7327H106.711V52.5249H123.998V54.7327H116.58V73.5212H114.1V54.7327Z" fill="#F6531A"/>
<path d="M133.97 58.015V60.1787H133.043C132.206 60.1702 131.377 60.354 130.622 60.7159C129.868 61.0726 129.235 61.6428 128.802 62.3558C128.369 63.0688 128.155 63.8932 128.186 64.7268V73.5212H125.72V58.015H128.017V60.2228C128.565 59.4806 129.291 58.8884 130.129 58.5007C130.971 58.1024 131.891 57.8939 132.822 57.8899C133.208 57.8928 133.593 57.9347 133.97 58.015Z" fill="#F6531A"/>
<path d="M146.894 59.2882C147.474 59.9143 147.92 60.6525 148.205 61.4574C148.49 62.2623 148.607 63.117 148.549 63.9688V73.536H146.261V71.5269C145.686 72.2896 144.926 72.8926 144.053 73.2784C143.1 73.6947 142.068 73.9005 141.028 73.8819C139.632 73.9438 138.256 73.5285 137.128 72.7044C136.655 72.3229 136.273 71.8404 136.011 71.2921C135.748 70.7439 135.612 70.1439 135.612 69.5362C135.612 68.9285 135.748 68.3284 136.011 67.7802C136.273 67.232 136.655 66.7494 137.128 66.3679C138.307 65.5335 139.732 65.1189 141.175 65.1905H146.077V63.851C146.118 63.3182 146.051 62.7824 145.878 62.2764C145.706 61.7704 145.433 61.3046 145.076 60.9073C144.707 60.5645 144.274 60.2992 143.801 60.1273C143.328 59.9554 142.826 59.8802 142.323 59.9064C141.453 59.8883 140.594 60.1043 139.836 60.5319C139.04 61.0114 138.347 61.6443 137.797 62.3939L136.178 61.0545C136.817 59.962 137.754 59.0737 138.879 58.4934C139.993 57.9257 141.228 57.6353 142.478 57.6471C143.287 57.6089 144.095 57.7346 144.853 58.0166C145.612 58.2986 146.306 58.7312 146.894 59.2882ZM143.714 71.2767C144.414 70.9191 145.01 70.3867 145.444 69.7312C145.872 69.0912 146.101 68.3379 146.099 67.5675V67.1848H141.484C140.62 67.1329 139.758 67.3241 138.997 67.7368C138.721 67.9097 138.496 68.1527 138.345 68.441C138.193 68.7294 138.121 69.0527 138.136 69.3779C138.121 69.7351 138.198 70.0902 138.361 70.4087C138.523 70.7271 138.765 70.9982 139.063 71.1957C139.744 71.635 140.542 71.8558 141.352 71.8286C142.172 71.8353 142.982 71.6461 143.714 71.2767Z" fill="#F6531A"/>
<path d="M154.982 53.8717C154.497 53.8812 154.029 53.6987 153.679 53.3639C153.503 53.2027 153.363 53.0057 153.269 52.7861C153.175 52.5666 153.129 52.3295 153.134 52.0907C153.133 51.8547 153.181 51.621 153.275 51.4044C153.369 51.1878 153.506 50.993 153.679 50.8323C153.85 50.6618 154.053 50.5277 154.277 50.4379C154.501 50.3481 154.74 50.3045 154.982 50.3097C155.218 50.3068 155.453 50.3515 155.671 50.4413C155.89 50.5311 156.089 50.6641 156.255 50.8323C156.425 50.9963 156.56 51.193 156.652 51.4104C156.745 51.6279 156.792 51.8618 156.792 52.0981C156.792 52.3344 156.745 52.5682 156.652 52.7857C156.56 53.0032 156.425 53.1998 156.255 53.3639C156.087 53.5288 155.888 53.6586 155.669 53.7458C155.451 53.8329 155.217 53.8757 154.982 53.8717ZM153.738 58.015H156.189V73.5213H153.738V58.015Z" fill="#F6531A"/>
<path d="M172.872 59.3619C173.926 60.5849 174.474 62.1643 174.403 63.7775V73.5213H171.952V64.0645C172.001 62.9702 171.63 61.8986 170.915 61.0692C170.559 60.6838 170.122 60.3811 169.636 60.1828C169.151 59.9844 168.627 59.8951 168.103 59.9212C167.559 59.9021 167.017 59.9955 166.51 60.1956C166.004 60.3957 165.544 60.6981 165.159 61.084C164.783 61.4742 164.488 61.9355 164.293 62.4409C164.097 62.9464 164.004 63.4858 164.019 64.0277V73.4845H161.575V58.0151H163.864V59.671C164.443 59.0341 165.153 58.5316 165.947 58.1991C166.8 57.8447 167.717 57.6669 168.64 57.6766C169.426 57.6329 170.211 57.761 170.942 58.0521C171.673 58.3432 172.332 58.7901 172.872 59.3619Z" fill="#F6531A"/>
<path d="M180.835 53.8717C180.351 53.8812 179.882 53.6987 179.532 53.3639C179.356 53.2027 179.216 53.0057 179.123 52.7861C179.029 52.5666 178.983 52.3295 178.988 52.0907C178.987 51.8547 179.034 51.621 179.128 51.4044C179.222 51.1878 179.359 50.993 179.532 50.8323C179.703 50.6618 179.906 50.5277 180.13 50.4379C180.354 50.3481 180.594 50.3045 180.835 50.3097C181.071 50.3068 181.306 50.3515 181.525 50.4413C181.743 50.5311 181.942 50.6641 182.108 50.8323C182.278 50.9963 182.413 51.193 182.506 51.4104C182.598 51.6279 182.646 51.8618 182.646 52.0981C182.646 52.3344 182.598 52.5682 182.506 52.7857C182.413 53.0032 182.278 53.1998 182.108 53.3639C181.94 53.5288 181.741 53.6586 181.523 53.7458C181.304 53.8329 181.07 53.8757 180.835 53.8717ZM179.591 58.015H182.042V73.5213H179.591V58.015Z" fill="#F6531A"/>
<path d="M198.726 59.3619C199.78 60.5849 200.328 62.1643 200.257 63.7775V73.5213H197.806V64.0645C197.855 62.9702 197.484 61.8986 196.768 61.0692C196.412 60.6838 195.976 60.3811 195.49 60.1828C195.004 59.9844 194.481 59.8951 193.957 59.9212C193.413 59.9021 192.87 59.9955 192.364 60.1956C191.857 60.3957 191.398 60.6981 191.013 61.084C190.637 61.4742 190.342 61.9355 190.146 62.4409C189.951 62.9464 189.857 63.4858 189.873 64.0277V73.4845H187.429V58.0151H189.718V59.671C190.296 59.0341 191.007 58.5316 191.801 58.1991C192.654 57.8447 193.57 57.6669 194.494 57.6766C195.28 57.6329 196.065 57.761 196.796 58.0521C197.527 58.3432 198.186 58.7901 198.726 59.3619Z" fill="#F6531A"/>
<path d="M220.347 58.0151V71.998C220.432 73.0114 220.296 74.0311 219.949 74.9869C219.601 75.9427 219.051 76.8118 218.335 77.5343C217.62 78.2569 216.756 78.8158 215.804 79.1724C214.851 79.5291 213.833 79.675 212.819 79.6002C211.398 79.6196 209.989 79.3309 208.69 78.7539C207.514 78.2349 206.442 77.5068 205.526 76.6049L206.997 74.8902C207.802 75.6079 208.701 76.2121 209.669 76.6859C210.647 77.1357 211.713 77.3596 212.789 77.3409C213.478 77.3801 214.168 77.2819 214.819 77.052C215.47 76.822 216.068 76.4649 216.579 76.0015C217.058 75.4871 217.426 74.8804 217.662 74.2185C217.897 73.5566 217.995 72.8535 217.948 72.1525V70.7763C217.302 71.6096 216.453 72.2633 215.483 72.675C214.444 73.1317 213.321 73.3649 212.186 73.3594C210.817 73.3802 209.468 73.0265 208.285 72.3365C207.139 71.6705 206.198 70.7033 205.562 69.5399C204.914 68.301 204.576 66.9236 204.576 65.5254C204.576 64.1272 204.914 62.7498 205.562 61.5108C206.2 60.3451 207.141 59.3737 208.285 58.6996C209.465 58.0016 210.815 57.6425 212.186 57.6619C213.367 57.6471 214.537 57.8986 215.608 58.3978C216.608 58.8489 217.462 59.5702 218.073 60.4805V58.0004L220.347 58.0151ZM215.196 70.5261C216.025 70.1084 216.715 69.459 217.183 68.6568C217.713 67.7131 217.968 66.6398 217.919 65.5585C217.97 64.4794 217.715 63.408 217.183 62.4676C216.709 61.6706 216.014 61.0287 215.181 60.6204C214.359 60.2183 213.455 60.0117 212.539 60.0169C211.551 60.0079 210.578 60.2619 209.72 60.7528C208.894 61.2164 208.212 61.8988 207.748 62.7251C207.275 63.6117 207.027 64.6013 207.027 65.6063C207.027 66.6114 207.275 67.601 207.748 68.4875C208.213 69.3111 208.895 69.9909 209.72 70.4525C210.584 70.9242 211.555 71.165 212.539 71.1516C213.456 71.1378 214.357 70.9137 215.174 70.4967L215.196 70.5261Z" fill="#F6531A"/>
<path d="M238.879 72.4322C237.23 71.5062 235.86 70.154 234.912 68.517C233.962 66.8325 233.463 64.9313 233.463 62.9975C233.463 61.0636 233.962 59.1625 234.912 57.4779C235.862 55.8425 237.231 54.4908 238.879 53.5627C240.555 52.6084 242.455 52.1157 244.384 52.135C246.159 52.111 247.912 52.531 249.484 53.3567C250.957 54.1247 252.207 55.2604 253.112 56.6537L251.265 58.1256C250.507 57.003 249.499 56.071 248.321 55.4026C247.127 54.7455 245.783 54.4107 244.42 54.4311C242.924 54.4135 241.45 54.7972 240.152 55.5424C238.889 56.2774 237.849 57.3404 237.142 58.6186C236.422 59.966 236.046 61.47 236.046 62.9975C236.046 64.525 236.422 66.0289 237.142 67.3763C237.85 68.6518 238.89 69.7122 240.152 70.4452C241.448 71.196 242.923 71.5825 244.42 71.5638C245.783 71.5842 247.127 71.2494 248.321 70.5924C249.498 69.9225 250.505 68.9908 251.265 67.8694L253.112 69.3413C252.22 70.7404 250.973 71.8781 249.498 72.6383C247.91 73.4691 246.139 73.8891 244.347 73.8599C242.43 73.8724 240.544 73.38 238.879 72.4322Z" fill="#F6531A"/>
<path d="M264.062 73.8378C262.63 73.8517 261.222 73.4779 259.985 72.756C258.764 72.0481 257.749 71.0333 257.041 69.8122C256.505 68.8917 256.156 67.8743 256.014 66.8185C255.871 65.7627 255.939 64.6892 256.212 63.6595C256.486 62.6298 256.96 61.6643 257.607 60.8182C258.255 59.9721 259.063 59.2621 259.985 58.729C261.854 57.6557 264.07 57.3629 266.154 57.914C268.237 58.4652 270.019 59.8158 271.113 61.6727C271.821 62.912 272.194 64.3149 272.194 65.7425C272.194 67.1701 271.821 68.573 271.113 69.8122C270.394 71.0479 269.361 72.0712 268.119 72.7783C266.877 73.4854 265.469 73.8509 264.04 73.8378H264.062ZM264.062 71.5785C265.061 71.5968 266.046 71.3424 266.91 70.8425C267.764 70.34 268.468 69.6184 268.949 68.7525C269.449 67.8532 269.703 66.8377 269.685 65.8087C269.701 64.766 269.447 63.7368 268.949 62.8208C268.485 61.9456 267.787 61.2169 266.932 60.716C266.063 60.2149 265.077 59.9511 264.073 59.9511C263.07 59.9511 262.084 60.2149 261.214 60.716C260.367 61.2217 259.675 61.9496 259.212 62.8208C258.714 63.7368 258.46 64.766 258.476 65.8087C258.46 66.8374 258.714 67.8524 259.212 68.7525C259.682 69.6238 260.38 70.3503 261.232 70.8536C262.084 71.3568 263.058 71.6177 264.048 71.6079L264.062 71.5785Z" fill="#F6531A"/>
<path d="M297.673 59.3618C298.694 60.6001 299.219 62.1739 299.145 63.7774V73.5212H296.716V64.0939C296.768 63.0014 296.423 61.9269 295.745 61.0692C295.412 60.6859 294.997 60.3833 294.53 60.1844C294.064 59.9854 293.558 59.8954 293.051 59.9211C292.52 59.9029 291.992 59.9956 291.499 60.1933C291.006 60.391 290.559 60.6893 290.188 61.0692C289.824 61.438 289.537 61.8762 289.345 62.3578C289.153 62.8394 289.059 63.3547 289.07 63.8731V73.5212H286.619V64.0939C286.673 62.9962 286.317 61.9177 285.618 61.0692C285.283 60.6892 284.867 60.389 284.401 60.1903C283.935 59.9917 283.431 59.8997 282.925 59.9211C282.395 59.9032 281.867 59.9975 281.376 60.1979C280.885 60.3983 280.442 60.7002 280.077 61.0839C279.329 61.9039 278.935 62.9854 278.98 64.0939V73.5212H276.529V58.015H278.818V59.6341C279.367 58.9974 280.054 58.494 280.827 58.1622C281.654 57.8157 282.543 57.6429 283.44 57.6544C284.449 57.6274 285.447 57.8687 286.332 58.3535C287.135 58.8179 287.789 59.5022 288.216 60.3259C288.789 59.5158 289.546 58.8526 290.424 58.3903C291.376 57.8889 292.439 57.6358 293.515 57.6544C294.291 57.6153 295.066 57.748 295.785 58.0432C296.503 58.3383 297.148 58.7886 297.673 59.3618Z" fill="#F6531A"/>
<path d="M316.439 58.7289C317.604 59.441 318.551 60.4593 319.177 61.6727C319.83 62.9457 320.17 64.3559 320.17 65.7866C320.17 67.2173 319.83 68.6274 319.177 69.9005C318.543 71.1132 317.592 72.1308 316.424 72.8442C315.245 73.5598 313.888 73.9296 312.509 73.9113C311.393 73.9184 310.289 73.6849 309.271 73.2269C308.309 72.8034 307.464 72.1546 306.806 71.3356V79.2322H304.355V58.0151H306.644V60.4952C307.26 59.5856 308.116 58.8647 309.117 58.4125C310.178 57.915 311.337 57.6634 312.509 57.6765C313.892 57.6539 315.253 58.0184 316.439 58.7289ZM314.967 70.8572C315.806 70.3605 316.489 69.6391 316.94 68.7745C317.409 67.8471 317.654 66.8223 317.654 65.7829C317.654 64.7435 317.409 63.7187 316.94 62.7913C316.485 61.9159 315.797 61.1839 314.951 60.6771C314.105 60.1703 313.135 59.9086 312.149 59.9211C311.234 59.9165 310.331 60.1363 309.521 60.5614C308.683 61.001 307.993 61.6764 307.534 62.5043C307.001 63.5001 306.747 64.6214 306.798 65.7498C306.755 66.8821 307.009 68.0061 307.534 69.01C307.981 69.8455 308.668 70.5275 309.507 70.9676C310.326 71.3954 311.239 71.6153 312.163 71.6079C313.146 71.6168 314.113 71.3573 314.96 70.8572H314.967Z" fill="#F6531A"/>
<path d="M327.427 73.0575C326.456 72.5247 325.655 71.7288 325.116 70.7614C324.539 69.7145 324.247 68.5344 324.27 67.3392V58.0149H326.691V67.5011C326.658 68.0409 326.738 68.5817 326.926 69.0886C327.115 69.5956 327.408 70.0573 327.785 70.4442C328.163 70.8311 328.618 71.1346 329.12 71.335C329.623 71.5353 330.161 71.6283 330.702 71.6077C331.223 71.6215 331.742 71.528 332.225 71.3331C332.709 71.1381 333.147 70.8458 333.513 70.4743C333.892 70.0862 334.188 69.6251 334.383 69.119C334.577 68.6129 334.667 68.0725 334.647 67.5306V58.0149H337.097V67.3392C337.124 68.5348 336.832 69.7159 336.251 70.7614C335.711 71.7257 334.913 72.5207 333.947 73.0575C332.942 73.5892 331.821 73.8671 330.683 73.8671C329.546 73.8671 328.425 73.5892 327.42 73.0575H327.427Z" fill="#F6531A"/>
<path d="M350.764 71.4459V73.5212C349.918 73.7332 349.052 73.8493 348.18 73.8671C346.797 73.9448 345.434 73.501 344.361 72.6233C343.867 72.1324 343.486 71.5396 343.244 70.8863C343.003 70.233 342.907 69.5349 342.963 68.8406V60.2081H340.35V58.0002H342.963V53.7612H345.413V58.0002H350.256V60.2081H345.413V68.6787C345.365 69.1032 345.417 69.5329 345.564 69.934C345.711 70.3351 345.949 70.6965 346.26 70.9896C346.978 71.4686 347.834 71.6963 348.696 71.6372C349.389 71.6304 350.081 71.5664 350.764 71.4459Z" fill="#F6531A"/>
<path d="M367.801 66.5151H355.54C355.639 67.9329 356.292 69.2547 357.358 70.1948C358.429 71.132 359.813 71.6312 361.236 71.5931C362.129 71.5857 363.011 71.395 363.828 71.033C364.644 70.671 365.378 70.1452 365.983 69.4883L367.418 71.1442C366.627 71.9848 365.68 72.6624 364.629 73.1386C363.555 73.6283 362.387 73.8793 361.207 73.8745C359.746 73.8939 358.306 73.5257 357.034 72.8074C355.804 72.1103 354.787 71.093 354.09 69.8636C353.364 68.618 352.99 67.1986 353.008 65.7571C352.991 64.3241 353.354 62.912 354.061 61.6653C354.739 60.449 355.726 59.4334 356.923 58.7215C358.135 57.9991 359.523 57.6248 360.934 57.6397C362.19 57.6246 363.429 57.9311 364.533 58.5302C365.596 59.1068 366.478 59.9681 367.079 61.0177C367.709 62.1215 368.03 63.375 368.007 64.6458C367.999 65.2742 367.93 65.9003 367.801 66.5151ZM360.853 59.8917C359.618 59.87 358.418 60.305 357.483 61.1133C356.514 61.9493 355.862 63.0924 355.635 64.3515H365.475C365.496 63.7417 365.386 63.1345 365.152 62.5708C364.919 62.0071 364.567 61.5001 364.121 61.0839C363.224 60.2835 362.055 59.8569 360.853 59.8917Z" fill="#F6531A"/>
<path d="M380.532 58.015V60.1786H379.612C378.775 60.1694 377.946 60.3532 377.191 60.7159C376.431 61.0665 375.793 61.6349 375.356 62.349C374.92 63.0631 374.706 63.8906 374.74 64.7267V73.5212H372.29V58.015H374.579V60.2228C375.13 59.4803 375.858 58.8881 376.698 58.5007C377.538 58.1049 378.455 57.8988 379.384 57.8972C379.77 57.8977 380.155 57.9372 380.532 58.015Z" fill="#F6531A"/>
<path d="M394.596 72.6602C393.247 71.8496 392.125 70.7102 391.336 69.3485L393.183 67.9796C394.748 70.3788 396.71 71.5784 399.07 71.5784C400.169 71.6245 401.249 71.2861 402.125 70.6216C402.506 70.319 402.812 69.9309 403.016 69.4886C403.221 69.0464 403.319 68.5623 403.302 68.0753C403.32 67.5261 403.177 66.9837 402.89 66.5151C402.597 66.0747 402.21 65.7051 401.757 65.4333C401.123 65.0485 400.469 64.6972 399.799 64.3809L397.444 63.2623C396.175 62.7023 395.008 61.9337 393.992 60.9882C393.556 60.5489 393.216 60.0238 392.993 59.4462C392.77 58.8685 392.669 58.2509 392.697 57.6323C392.68 56.6094 392.98 55.6064 393.558 54.7622C394.145 53.9285 394.942 53.2657 395.869 52.8414C396.86 52.3797 397.941 52.1458 399.034 52.1569C400.379 52.1389 401.705 52.4793 402.875 53.1431C403.991 53.7613 404.937 54.6462 405.628 55.7189L403.81 57.0877C403.275 56.2737 402.55 55.6019 401.698 55.1301C400.872 54.6772 399.946 54.4417 399.004 54.4457C398.061 54.4164 397.133 54.6954 396.362 55.2405C396.009 55.4982 395.725 55.8395 395.536 56.2338C395.348 56.6281 395.26 57.0631 395.28 57.4998C395.264 58.0349 395.407 58.5627 395.692 59.0159C395.971 59.4276 396.335 59.7741 396.76 60.0315C397.194 60.2964 397.827 60.6349 398.651 61.0397L400.977 62.151C402.343 62.7651 403.589 63.6173 404.656 64.6679C405.482 65.5802 405.918 66.7795 405.87 68.0091C405.888 69.0914 405.583 70.1545 404.995 71.0632C404.397 71.9674 403.558 72.6863 402.573 73.1386C401.48 73.64 400.288 73.8915 399.085 73.8745C397.506 73.8903 395.952 73.4701 394.596 72.6602Z" fill="#F6531A"/>
<path d="M417.469 73.8379C416.037 73.8529 414.628 73.479 413.392 72.756C412.171 72.0482 411.156 71.0334 410.448 69.8123C409.739 68.5705 409.366 67.1652 409.366 65.7352C409.366 64.3051 409.739 62.8998 410.448 61.6581C411.147 60.4303 412.164 59.4134 413.392 58.7143C415.26 57.6391 417.478 57.3452 419.561 57.8965C421.645 58.4478 423.427 59.7997 424.519 61.6581C425.228 62.8973 425.601 64.3002 425.601 65.7278C425.601 67.1554 425.228 68.5583 424.519 69.7975C423.815 71.0214 422.8 72.037 421.576 72.7413C420.329 73.4661 418.911 73.8446 417.469 73.8379ZM417.469 71.5785C418.465 71.5848 419.444 71.323 420.304 70.8206C421.164 70.3182 421.872 69.5937 422.356 68.7231C422.856 67.8237 423.11 66.8083 423.092 65.7793C423.104 64.737 422.851 63.7087 422.356 62.7914C421.895 61.9189 421.202 61.1905 420.354 60.6866C419.486 60.1854 418.501 59.9215 417.499 59.9215C416.496 59.9215 415.511 60.1854 414.643 60.6866C413.793 61.19 413.097 61.9184 412.634 62.7914C412.139 63.7086 411.885 64.737 411.898 65.7793C411.886 66.8075 412.14 67.8215 412.634 68.7231C413.106 69.5939 413.806 70.3198 414.659 70.8229C415.512 71.3259 416.486 71.5872 417.477 71.5785H417.469Z" fill="#F6531A"/>
<path d="M433.601 52.1718C433.291 52.4641 433.054 52.8243 432.907 53.224C432.76 53.6237 432.708 54.052 432.754 54.4753V58.0152H436.64V60.223H432.754V73.5361H430.304V60.2082H428.096V58.0004H430.304V54.3207C430.248 53.6267 430.343 52.9288 430.582 52.2747C430.821 51.6207 431.198 51.0258 431.687 50.5307C432.734 49.6578 434.072 49.2134 435.433 49.2869C436.089 49.2858 436.743 49.3724 437.376 49.5445V51.6125C436.922 51.5516 436.465 51.5197 436.007 51.5168C435.155 51.4625 434.308 51.6929 433.601 52.1718Z" fill="#F6531A"/>
<path d="M447.238 71.4459V73.5212C446.392 73.7332 445.526 73.8493 444.655 73.8671C443.271 73.9448 441.908 73.501 440.835 72.6233C440.341 72.1324 439.96 71.5396 439.719 70.8863C439.477 70.233 439.381 69.5349 439.437 68.8406V60.2081H436.824V58.0002H439.437V53.7612H441.887V58.0002H446.73V60.2081H441.887V68.6787C441.84 69.1032 441.891 69.5329 442.038 69.934C442.185 70.3351 442.423 70.6965 442.734 70.9896C443.452 71.4686 444.309 71.6963 445.17 71.6372C445.863 71.6304 446.555 71.5664 447.238 71.4459Z" fill="#F6531A"/>
<path d="M474.43 58.0151L467.903 73.8672H467.012L461.721 62.1511L456.474 73.8672H455.612L448.989 58.0151H451.602L456.091 69.5031L461.242 57.6619H462.162L467.387 69.4369L471.803 58.0446L474.43 58.0151Z" fill="#F6531A"/>
<path d="M487.324 59.2883C487.905 59.9144 488.351 60.6526 488.636 61.4575C488.921 62.2624 489.038 63.117 488.98 63.9689V73.5361H486.684V71.527C486.11 72.2904 485.35 72.8935 484.476 73.2785C483.523 73.6948 482.491 73.9006 481.451 73.882C480.055 73.9439 478.68 73.5286 477.551 72.7045C477.075 72.3246 476.692 71.8426 476.428 71.2941C476.164 70.7457 476.027 70.1449 476.027 69.5363C476.027 68.9277 476.164 68.3268 476.428 67.7784C476.692 67.2299 477.075 66.7479 477.551 66.368C478.728 65.5336 480.151 65.1189 481.591 65.1905H486.5V63.8511C486.54 63.3177 486.472 62.7817 486.298 62.2756C486.125 61.7696 485.851 61.3041 485.492 60.9074C485.124 60.5632 484.691 60.297 484.218 60.125C483.745 59.953 483.242 59.8786 482.739 59.9065C481.871 59.8886 481.015 60.1047 480.259 60.532C479.462 61.0096 478.768 61.6428 478.221 62.394L476.594 61.0546C477.236 59.9615 478.175 59.0734 479.302 58.4935C480.416 57.9257 481.651 57.6354 482.901 57.6472C483.711 57.608 484.52 57.7332 485.281 58.0152C486.041 58.2973 486.736 58.7303 487.324 59.2883ZM484.138 71.2768C484.84 70.9194 485.438 70.3871 485.874 69.7313C486.303 69.0913 486.531 68.3379 486.529 67.5676V67.1849H481.908C481.046 67.1328 480.186 67.3241 479.428 67.7369C479.152 67.9098 478.927 68.1528 478.775 68.4411C478.624 68.7294 478.552 69.0527 478.567 69.378C478.551 69.7352 478.629 70.0903 478.791 70.4088C478.954 70.7272 479.196 70.9983 479.494 71.1958C480.174 71.636 480.973 71.8569 481.783 71.8287C482.6 71.8342 483.408 71.645 484.138 71.2768Z" fill="#F6531A"/>
<path d="M502.418 58.015V60.1787H501.491C500.654 60.1702 499.825 60.354 499.07 60.7159C498.313 61.0705 497.677 61.6397 497.241 62.3529C496.806 63.066 496.589 63.8916 496.619 64.7268V73.5212H494.168V58.015H496.465V60.2228C497.013 59.4806 497.739 58.8884 498.577 58.5007C499.43 58.0972 500.363 57.8885 501.307 57.8899C501.681 57.8952 502.053 57.9371 502.418 58.015Z" fill="#F6531A"/>
<path d="M519.065 66.5151H506.812C506.911 67.9311 507.561 69.252 508.622 70.1948C509.696 71.1331 511.083 71.6324 512.508 71.5931C513.401 71.5848 514.283 71.3938 515.099 71.0318C515.916 70.6698 516.649 70.1445 517.255 69.4883L518.683 71.1442C517.896 71.9856 516.95 72.6634 515.901 73.1386C514.827 73.6283 513.659 73.8793 512.479 73.8745C511.018 73.8939 509.578 73.5257 508.306 72.8074C507.077 72.1103 506.059 71.093 505.362 69.8636C504.637 68.618 504.263 67.1986 504.28 65.7571C504.265 64.3253 504.626 62.9146 505.325 61.6653C506.007 60.4487 506.997 59.4332 508.196 58.7215C509.408 57.9991 510.795 57.6248 512.206 57.6397C513.462 57.6246 514.701 57.9311 515.805 58.5302C516.869 59.1068 517.75 59.9681 518.352 61.0177C518.976 62.1236 519.293 63.3761 519.271 64.6458C519.268 65.2744 519.199 65.9009 519.065 66.5151ZM512.126 59.8917C510.89 59.8686 509.689 60.3038 508.755 61.1133C507.787 61.9493 507.134 63.0924 506.908 64.3515H516.762C516.781 63.7419 516.67 63.1353 516.437 62.5719C516.203 62.0085 515.852 61.5013 515.408 61.0839C514.507 60.2799 513.332 59.8531 512.126 59.8917Z" fill="#F6531A"/>
<path d="M23.6104 27.2273C23.6104 27.2273 22.9469 35.9806 15.4133 51.2721C23.9422 56.3661 36.0232 66.1148 37.7944 78.1079C40.1217 72.2528 43.5567 61.7088 43.5567 61.7088C43.5567 61.7088 43.9959 35.0926 23.6104 27.2273Z" fill="#03C39A"/>
<path d="M20.766 35.2781H15.3988C15.3988 35.2781 2.36155 55.2244 0 67.6323C8.2703 64.8267 28.5825 59.0643 35.6721 78.0836C36.7065 77.7518 36.5991 77.4541 36.5991 77.4541C36.5991 77.4541 31.5393 58.5081 13.6667 52.653C17.2237 43.846 20.766 35.2781 20.766 35.2781Z" fill="#F67F00"/>
<path d="M34.14 77.0099C34.14 77.0099 26.0112 64.4557 4.29858 74.3507C5.40617 69.4715 7.17733 66.744 7.17733 66.744C7.17733 66.744 25.3476 60.4644 34.14 77.0099Z" fill="#D52828"/>
<path d="M32.2175 76.5318C32.2175 76.5318 26.3088 71.2525 19.5852 76.3122C19.7365 73.9458 21.693 71.2915 21.693 71.2915C21.693 71.2915 29.0021 71.2866 32.2175 76.5318Z" fill="#00B4D8"/>
<path d="M14.9597 34.4486H21.2051C21.9395 32.0712 22.462 29.6335 22.7665 27.1639L22.8543 26.0514L23.8984 26.4515C25.8864 27.2182 27.7791 28.212 29.5388 29.4132C29.8267 28.7545 30.139 28.1056 30.4854 27.4615C32.5141 23.682 35.5461 20.5353 39.2477 18.3677C42.9494 16.2001 47.1772 15.0955 51.4661 15.1756C59.7087 15.1756 66.595 19.0872 72.1248 26.9102L83.708 17.8348C80.4547 12.3959 75.8446 7.89504 70.3292 4.77313C64.7474 1.59187 58.4092 0.00123887 51.3148 0.00123887C44.135 -0.0546499 37.067 1.78133 30.8221 5.32448C24.6463 8.76864 19.5123 13.8127 15.9595 19.9266C12.4067 26.0405 10.5663 32.9986 10.6318 40.0695C10.6318 40.5281 10.6611 40.977 10.6757 41.4308C12.8665 37.6835 14.5401 35.0878 14.7255 34.8243L14.9597 34.4486Z" fill="white"/>
<path d="M51.471 65.1094C48.8334 65.127 46.2098 64.7252 43.6984 63.9189C42.5859 67.2563 40.2829 74.0921 38.5703 78.3858C42.6956 79.6717 46.9938 80.3168 51.3149 80.2985C58.3084 80.2985 64.5945 78.7062 70.1731 75.5217C75.7169 72.3788 80.3749 67.8837 83.7129 62.4551L72.1297 53.5359C66.499 61.2516 59.6128 65.1094 51.471 65.1094Z" fill="white"/>
</svg>
