<svg width="259" height="125" viewBox="0 0 259 125" fill="none" xmlns="http://www.w3.org/2000/svg">
<path d="M97.6589 76.8004H80.3692C80.5918 76.0683 80.7558 75.4064 80.9842 74.7739C82.2376 71.33 83.4968 67.89 84.7619 64.454C85.4823 62.5036 86.4663 60.7934 84.5511 58.6556C83.0107 56.9395 83.9654 54.2043 85.7693 52.4707C86.4471 51.8302 86.8783 50.972 86.9876 50.0459C87.1047 45.4482 86.9876 40.8446 87.0754 36.2469C87.0754 34.9526 86.601 34.3317 85.5175 33.7929C82.7647 32.4106 80.0705 30.923 77.0718 29.3299C77.962 28.8203 78.6122 28.4162 79.2857 28.0589C96.6222 18.887 113.955 9.7111 131.284 0.531328C132.455 -0.107078 133.392 -0.224217 134.634 0.478616C139.761 3.38756 144.922 6.22232 150.12 8.98289C151.332 9.63301 151.877 10.33 151.841 11.7884C151.771 23.4398 151.771 35.0873 151.841 46.7309C151.909 47.3213 151.782 47.9176 151.481 48.43C151.18 48.9423 150.721 49.3429 150.172 49.5715C144.963 52.336 139.809 55.1746 134.71 58.0875C134.215 58.4127 133.636 58.586 133.044 58.586C132.451 58.586 131.872 58.4127 131.377 58.0875C118.761 51.3754 106.122 44.6868 93.4595 38.0216C92.786 37.6643 92.089 37.348 91.0816 36.8502C91.0816 41.7935 91.0816 46.438 91.1284 51.0826C91.1284 51.5804 91.7551 52.1251 92.1944 52.5468C94.3146 54.5733 94.5372 57.0918 93.0026 59.5751C92.532 60.3641 92.3891 61.306 92.6044 62.199C94.1565 66.9842 95.8726 71.7049 97.6589 76.8004ZM87.2687 29.3475C102.426 37.3656 117.221 45.2081 132.051 52.9861C132.396 53.1115 132.764 53.1643 133.131 53.1411C133.498 53.118 133.856 53.0193 134.183 52.8514C138.06 50.8073 141.92 48.7515 145.692 46.4907C146.061 46.227 146.37 45.8873 146.597 45.4943C146.825 45.1013 146.965 44.6642 147.009 44.2124C147.097 34.2556 147.009 24.3574 147.097 14.4298C147.146 13.9039 147.024 13.3761 146.749 12.9253C146.473 12.4746 146.059 12.1251 145.569 11.9289C141.885 9.97857 138.218 7.99307 134.616 5.89043C134.123 5.56006 133.543 5.38367 132.95 5.38367C132.357 5.38367 131.777 5.56006 131.284 5.89043C117.27 13.36 103.239 20.8002 89.1898 28.2112C88.6392 28.5099 88.1063 28.8438 87.2687 29.3475Z" fill="white"/>
<path d="M103.938 49.1908C104.851 49.6476 105.478 49.9346 106.087 50.2685C114.55 54.8486 123.019 59.4053 131.448 64.0498C131.97 64.3915 132.581 64.5735 133.205 64.5735C133.829 64.5735 134.439 64.3915 134.962 64.0498C143.39 59.4111 151.859 54.8544 160.322 50.2743C160.908 49.9463 161.558 49.6886 162.454 49.2142C162.454 55.3991 162.454 61.2678 162.407 67.1364C162.348 67.4301 162.226 67.7075 162.051 67.9501C161.875 68.1926 161.649 68.3945 161.388 68.5421C152.298 73.6025 143.179 78.6102 134.031 83.5652C133.697 83.7141 133.336 83.791 132.97 83.791C132.605 83.791 132.244 83.7141 131.91 83.5652C122.93 78.739 113.978 73.8583 105.056 68.9228C104.79 68.7838 104.557 68.5896 104.372 68.3533C104.188 68.1169 104.055 67.8438 103.984 67.5523C103.914 61.5314 103.938 55.5221 103.938 49.1908Z" fill="white"/>
<path d="M157.663 29.2772C157.663 26.0442 157.611 22.8346 157.663 19.5722C157.739 15.7594 160.445 14.1956 163.813 15.9995C169.764 19.1857 175.685 22.4421 181.63 25.6283C183.118 26.4249 184.195 27.3854 184.201 29.2655C184.207 31.1455 183.118 32.1119 181.636 32.9085C175.691 36.1064 169.77 39.3511 163.813 42.5314C160.381 44.3647 157.798 42.8477 157.652 38.9821C157.652 38.8357 157.652 38.6951 157.652 38.5487L157.663 29.2772Z" fill="white"/>
<path d="M5.39455 95.8296H8.26445V107.251H14.3967V109.845H5.39455V95.8296Z" fill="white"/>
<path d="M16.5227 95.8296H25.9466V98.4184H19.3868V101.265H24.207V103.707H19.3868V107.221H26.2043V109.816H16.5227V95.8296Z" fill="white"/>
<path d="M36.9459 108.018H31.2119L30.4564 109.845H27.3522L33.6133 95.5719H34.5562L40.7997 109.845H37.7307L36.9459 108.018ZM34.0818 100.925L32.2135 105.658H35.9502L34.0818 100.925Z" fill="white"/>
<path d="M51.3247 109.845L47.6934 104.896H45.5907V109.845H42.7208V95.8296H47.9921C50.9205 95.8296 53.0466 97.5867 53.0466 100.351C53.0634 101.182 52.8404 102 52.4041 102.708C51.9678 103.415 51.3368 103.982 50.5867 104.34L54.5577 109.845H51.3247ZM45.5907 102.366H47.9862C48.2588 102.381 48.5315 102.34 48.7876 102.246C49.0438 102.151 49.2782 102.006 49.4763 101.818C49.6744 101.631 49.8323 101.404 49.9401 101.154C50.048 100.903 50.1036 100.633 50.1036 100.36C50.1036 100.087 50.048 99.8169 49.9401 99.5662C49.8323 99.3154 49.6744 99.0893 49.4763 98.9016C49.2782 98.7138 49.0438 98.5685 48.7876 98.4743C48.5315 98.3802 48.2588 98.3392 47.9862 98.3539H45.5907V102.366Z" fill="white"/>
<path d="M68.2454 95.8296V110.103H67.2907L59.1554 101.435V109.845H56.2855V95.5719H57.2226L65.3579 104.193V95.8296H68.2454Z" fill="white"/>
<path d="M70.6408 102.834C70.6036 101.351 71.0095 99.891 71.8068 98.6399C72.6042 97.3889 73.7565 96.4042 75.1166 95.8117C76.4767 95.2192 77.9826 95.0459 79.4417 95.314C80.9008 95.582 82.2467 96.2793 83.3073 97.3165C84.368 98.3537 85.0951 99.6838 85.3956 101.137C85.6962 102.589 85.5565 104.099 84.9945 105.472C84.4325 106.845 83.4737 108.019 82.2408 108.844C81.0078 109.669 79.5568 110.107 78.0733 110.103C77.1053 110.124 76.1428 109.952 75.2423 109.596C74.3418 109.24 73.5214 108.708 72.8291 108.031C72.1369 107.354 71.5868 106.546 71.211 105.653C70.8352 104.761 70.6414 103.803 70.6408 102.834ZM82.6007 102.834C82.58 101.948 82.2983 101.088 81.7909 100.362C81.2836 99.6349 80.5731 99.0741 79.7485 98.7493C78.9239 98.4245 78.0218 98.3502 77.1552 98.5357C76.2886 98.7212 75.4959 99.1583 74.8765 99.7922C74.2571 100.426 73.8385 101.229 73.6731 102.099C73.5077 102.97 73.6028 103.87 73.9466 104.687C74.2904 105.504 74.8675 106.201 75.6057 106.692C76.344 107.182 77.2105 107.444 78.0967 107.444C78.6992 107.454 79.2973 107.341 79.8544 107.111C80.4115 106.882 80.9156 106.54 81.3359 106.109C81.7561 105.677 82.0836 105.164 82.2981 104.601C82.5126 104.037 82.6096 103.436 82.5831 102.834H82.6007Z" fill="white"/>
<path d="M99.6678 95.8296L93.4243 110.103H92.4697L86.2086 95.8354H89.4533L92.9675 104.328L96.4465 95.8354L99.6678 95.8296Z" fill="white"/>
<path d="M108.143 108.018H102.409L101.624 109.845H98.5433L104.84 95.5719H105.794L112.038 109.845H108.939L108.143 108.018ZM105.273 100.925L103.405 105.658H107.141L105.273 100.925Z" fill="white"/>
<path d="M115.487 98.4184H111.007V95.8296H122.855V98.4184H118.357V109.845H115.487V98.4184Z" fill="white"/>
<path d="M124.753 95.8296H134.177V98.4184H127.617V101.265H132.437V103.707H127.617V107.221H134.435V109.816H124.753V95.8296Z" fill="white"/>
<path d="M142.857 95.8296H152.281V98.4184H145.721V101.265H150.524V103.707H145.721V107.221H152.538V109.816H142.857V95.8296Z" fill="white"/>
<path d="M155.022 95.8296H159.608C164.112 95.8296 167.251 98.5882 167.251 102.793C167.251 106.999 164.112 109.822 159.608 109.822H155.022V95.8296ZM159.59 107.251C162.413 107.251 164.276 105.494 164.276 102.793C164.276 100.093 162.384 98.4184 159.59 98.4184H157.892V107.251H159.59Z" fill="white"/>
<path d="M169.547 104.047V95.8472H172.411V104.246C172.411 106.349 173.752 107.432 175.492 107.432C177.231 107.432 178.573 106.349 178.573 104.246V95.8296H181.437V104.029C181.437 107.784 178.889 110.08 175.492 110.08C172.095 110.08 169.547 107.801 169.547 104.047Z" fill="white"/>
<path d="M183.732 102.834C183.733 101.863 183.928 100.901 184.306 100.007C184.685 99.1118 185.239 98.3019 185.935 97.6249C186.632 96.9478 187.458 96.4173 188.363 96.0647C189.268 95.712 190.235 95.5445 191.206 95.5719C192.452 95.5481 193.683 95.8588 194.768 96.4717C195.854 97.0846 196.755 97.9772 197.379 99.0568L195.212 100.585C194.814 99.8714 194.232 99.2773 193.527 98.8651C192.821 98.453 192.017 98.238 191.2 98.2427C189.978 98.2427 188.805 98.7283 187.941 99.5927C187.076 100.457 186.591 101.63 186.591 102.852C186.591 104.075 187.076 105.247 187.941 106.111C188.805 106.976 189.978 107.461 191.2 107.461C192.017 107.466 192.821 107.251 193.527 106.839C194.232 106.427 194.814 105.833 195.212 105.119L197.379 106.589C196.759 107.68 195.855 108.583 194.763 109.202C193.671 109.821 192.432 110.132 191.177 110.103C190.207 110.127 189.243 109.957 188.34 109.603C187.438 109.248 186.615 108.716 185.921 108.039C185.228 107.362 184.676 106.552 184.3 105.658C183.925 104.764 183.731 103.804 183.732 102.834Z" fill="white"/>
<path d="M207.869 108.018H202.141L201.35 109.845H198.275L204.536 95.5719H205.491L211.735 109.845H208.66L207.869 108.018ZM204.993 100.925L203.125 105.658H206.862L204.993 100.925Z" fill="white"/>
<path d="M215.219 98.4184H210.739V95.8296H222.564V98.4184H218.06V109.845H215.196L215.219 98.4184Z" fill="white"/>
<path d="M224.473 95.8296H227.343V109.845H224.473V95.8296Z" fill="white"/>
<path d="M229.739 102.834C229.701 101.351 230.107 99.891 230.905 98.6399C231.702 97.3889 232.854 96.4042 234.214 95.8117C235.575 95.2192 237.08 95.0459 238.54 95.314C239.999 95.582 241.345 96.2793 242.405 97.3165C243.466 98.3537 244.193 99.6838 244.494 101.137C244.794 102.589 244.654 104.099 244.092 105.472C243.53 106.845 242.572 108.019 241.339 108.844C240.106 109.669 238.655 110.107 237.171 110.103C236.203 110.124 235.241 109.952 234.34 109.596C233.44 109.24 232.619 108.708 231.927 108.031C231.235 107.354 230.685 106.546 230.309 105.653C229.933 104.761 229.739 103.803 229.739 102.834ZM241.693 102.834C241.672 101.948 241.39 101.088 240.883 100.361C240.375 99.6342 239.664 99.0733 238.839 98.7487C238.014 98.4241 237.112 98.3502 236.245 98.5362C235.378 98.7221 234.586 99.1598 233.966 99.7943C233.347 100.429 232.929 101.232 232.764 102.103C232.6 102.974 232.696 103.874 233.04 104.691C233.385 105.508 233.963 106.205 234.702 106.694C235.441 107.184 236.308 107.445 237.195 107.444C237.798 107.457 238.398 107.345 238.957 107.116C239.516 106.888 240.022 106.547 240.443 106.115C240.865 105.683 241.194 105.169 241.408 104.604C241.623 104.04 241.72 103.438 241.693 102.834Z" fill="white"/>
<path d="M259 95.8296V110.103H258.045L249.933 101.435V109.845H247.069V95.5719H248.001L256.136 104.193V95.8296H259Z" fill="white"/>
<path d="M5.95681 121.752C5.47655 122.479 5.11341 123.012 4.85571 123.351L6.05638 124.78H5.0197L4.32858 123.955C4.04828 124.244 3.71917 124.482 3.35633 124.657C3.00345 124.825 2.61664 124.909 2.22594 124.903C1.82167 124.914 1.42058 124.829 1.05456 124.657C0.742075 124.507 0.476718 124.274 0.287297 123.984C0.0937189 123.688 -0.00629458 123.341 0.000306962 122.988C0.002417 122.595 0.131869 122.213 0.369294 121.899C0.736809 121.452 1.16453 121.057 1.64025 120.727C1.41246 120.445 1.21607 120.139 1.05456 119.814C0.928342 119.553 0.864197 119.266 0.867134 118.976C0.855471 118.761 0.889051 118.545 0.965714 118.343C1.04238 118.142 1.16042 117.958 1.31226 117.805C1.46757 117.656 1.65149 117.54 1.85285 117.465C2.05421 117.389 2.26882 117.356 2.48365 117.366C2.90506 117.35 3.31556 117.502 3.62575 117.787C3.78177 117.924 3.90532 118.094 3.98739 118.284C4.06946 118.475 4.10799 118.681 4.10016 118.888C4.0959 119.235 3.98553 119.572 3.78389 119.855C3.50814 120.231 3.17629 120.563 2.79992 120.839L4.3403 122.69C4.51015 122.461 4.74443 122.104 5.05485 121.618L5.39455 121.102L6.10324 121.565L5.95681 121.752ZM3.7956 123.316L2.13809 121.325C1.86202 121.528 1.59982 121.749 1.35326 121.987C1.20894 122.118 1.08985 122.275 1.00184 122.449C0.933348 122.6 0.899332 122.764 0.902276 122.93C0.898656 123.091 0.930947 123.25 0.996801 123.397C1.06265 123.544 1.16042 123.675 1.28298 123.779C1.55056 124.005 1.89349 124.122 2.24351 124.107C2.5437 124.094 2.83755 124.016 3.10529 123.88C3.37302 123.743 3.60841 123.551 3.7956 123.316ZM1.8921 118.385C1.75545 118.548 1.68449 118.757 1.69296 118.97C1.69723 119.174 1.74728 119.374 1.83939 119.556C1.97788 119.815 2.14699 120.057 2.34308 120.276C2.60821 120.071 2.84633 119.833 3.05177 119.568C3.18908 119.381 3.26482 119.156 3.26848 118.924C3.27348 118.823 3.25788 118.722 3.22264 118.627C3.18739 118.532 3.13324 118.446 3.06349 118.373C2.98888 118.304 2.90116 118.251 2.80556 118.217C2.70996 118.183 2.60844 118.168 2.50708 118.174C2.39541 118.162 2.28255 118.175 2.17635 118.211C2.07014 118.248 1.97315 118.307 1.8921 118.385Z" fill="white"/>
<path d="M17.3544 118.303H14.7949V117.53H20.7749V118.303H18.2095V124.798H17.3544V118.303Z" fill="white"/>
<path d="M29.5193 124.78L27.2585 121.729H25.7064V124.78H24.8513V117.512H27.4049C27.8285 117.504 28.2481 117.596 28.629 117.781C28.9644 117.949 29.2448 118.209 29.4373 118.531C29.6309 118.859 29.7302 119.234 29.7243 119.615C29.7364 120.072 29.594 120.519 29.3201 120.886C29.038 121.251 28.6425 121.513 28.1956 121.629L30.5384 124.78H29.5193ZM25.7064 120.962H27.3698C27.7646 120.987 28.1536 120.857 28.4533 120.599C28.5808 120.472 28.6805 120.32 28.7461 120.153C28.8116 119.985 28.8416 119.806 28.834 119.626C28.8407 119.447 28.8098 119.269 28.7432 119.102C28.6766 118.936 28.5759 118.785 28.4475 118.66C28.3019 118.529 28.1315 118.428 27.9465 118.364C27.7614 118.299 27.5653 118.273 27.3698 118.285H25.7064V120.962Z" fill="white"/>
<path d="M38.9841 123.304H35.4172L34.8315 124.78H33.9003L37.0454 117.395H37.3676L40.5128 124.78H39.5991L38.9841 123.304ZM37.227 118.959L35.7276 122.537H38.6561L37.227 118.959Z" fill="white"/>
<path d="M44.7239 117.512H45.579V124.78H44.7239V117.512Z" fill="white"/>
<path d="M56.2269 117.512V124.903H55.9165L51.2954 119.333V124.78H50.4344V117.395H50.7448L55.366 122.988V117.524L56.2269 117.512Z" fill="white"/>
<path d="M61.094 117.512H61.9491V124.78H61.094V117.512Z" fill="white"/>
<path d="M72.6264 117.512V124.903H72.316L67.6948 119.333V124.78H66.8339V117.395H67.1443L71.7654 122.976V117.512H72.6264Z" fill="white"/>
<path d="M78.8581 124.406C78.2891 124.087 77.8174 123.619 77.4935 123.053C77.2415 122.624 77.0769 122.151 77.0091 121.658C76.9413 121.166 76.9718 120.666 77.0987 120.185C77.2256 119.705 77.4464 119.254 77.7484 118.86C78.0504 118.465 78.4276 118.135 78.8581 117.887C79.4399 117.557 80.0987 117.387 80.7675 117.395C81.3525 117.388 81.9307 117.52 82.4543 117.781C82.9721 118.038 83.4187 118.418 83.7545 118.888L83.1103 119.398C82.8474 119.029 82.5025 118.726 82.1029 118.514C81.7012 118.299 81.2519 118.191 80.7968 118.197C80.2751 118.189 79.761 118.323 79.3091 118.584C78.8741 118.835 78.5173 119.202 78.2783 119.644C78.0298 120.106 77.9028 120.624 77.9093 121.149C77.9047 121.68 78.0336 122.204 78.2842 122.672C78.5258 123.122 78.8891 123.496 79.3325 123.75C79.7846 124.018 80.3005 124.159 80.8261 124.16C81.3229 124.168 81.8134 124.047 82.2493 123.808C82.6575 123.581 83.002 123.255 83.2508 122.859V121.881H80.7734V121.108H84.106V123.047C83.7836 123.621 83.3095 124.095 82.7354 124.417C82.1464 124.749 81.4817 124.924 80.8056 124.924C80.1294 124.924 79.4647 124.749 78.8757 124.417L78.8581 124.406Z" fill="white"/>
<path d="M95.8843 124.406C95.3136 124.087 94.84 123.619 94.5137 123.053C94.1836 122.471 94.01 121.815 94.01 121.146C94.01 120.478 94.1836 119.821 94.5137 119.24C94.8434 118.676 95.3162 118.209 95.8843 117.887C96.4645 117.558 97.1211 117.389 97.7878 117.395C98.3992 117.389 99.0028 117.533 99.5448 117.817C100.058 118.091 100.49 118.495 100.798 118.988L100.154 119.474C99.8894 119.087 99.541 118.765 99.1349 118.531C98.7223 118.305 98.2581 118.19 97.7878 118.197C97.2699 118.19 96.7598 118.324 96.3118 118.584C95.8747 118.836 95.5144 119.203 95.2693 119.644C95.0196 120.109 94.889 120.63 94.889 121.158C94.889 121.686 95.0196 122.206 95.2693 122.672C95.5143 123.115 95.8745 123.483 96.3118 123.738C96.7616 123.993 97.2708 124.124 97.7878 124.119C98.2581 124.126 98.7223 124.011 99.1349 123.785C99.5424 123.553 99.8911 123.23 100.154 122.842L100.792 123.351C100.482 123.834 100.049 124.225 99.539 124.488C98.9986 124.776 98.3942 124.923 97.7819 124.915C97.1156 124.915 96.4612 124.739 95.8843 124.406Z" fill="white"/>
<path d="M106.556 124.406C105.988 124.083 105.516 123.613 105.191 123.047C104.94 122.619 104.776 122.145 104.709 121.654C104.641 121.162 104.672 120.662 104.799 120.183C104.926 119.703 105.146 119.253 105.448 118.859C105.749 118.465 106.126 118.135 106.556 117.887C107.129 117.548 107.781 117.367 108.447 117.363C109.113 117.358 109.768 117.531 110.345 117.863C110.922 118.194 111.401 118.674 111.732 119.251C112.064 119.828 112.236 120.483 112.231 121.149C112.237 121.817 112.063 122.475 111.727 123.053C111.397 123.618 110.922 124.085 110.351 124.406C109.772 124.732 109.118 124.903 108.453 124.903C107.788 124.903 107.135 124.732 106.556 124.406ZM109.929 123.72C110.364 123.462 110.722 123.092 110.966 122.649C111.212 122.184 111.341 121.666 111.341 121.14C111.341 120.615 111.212 120.097 110.966 119.632C110.723 119.191 110.364 118.825 109.929 118.572C109.485 118.313 108.979 118.179 108.465 118.186C107.947 118.179 107.437 118.313 106.989 118.572C106.556 118.823 106.199 119.187 105.958 119.626C105.712 120.092 105.583 120.611 105.583 121.137C105.583 121.664 105.712 122.183 105.958 122.649C106.198 123.093 106.555 123.463 106.989 123.72C107.437 123.98 107.947 124.113 108.465 124.107C108.979 124.113 109.485 123.98 109.929 123.72Z" fill="white"/>
<path d="M123.306 117.395V124.78H122.445V119.574L120.103 122.719H119.792L117.45 119.55V124.78H116.589V117.395H116.899L119.927 121.588L122.973 117.395H123.306Z" fill="white"/>
<path d="M128.174 117.512H130.727C131.153 117.504 131.574 117.597 131.957 117.781C132.29 117.952 132.57 118.212 132.765 118.531C132.954 118.864 133.053 119.241 133.053 119.623C133.053 120.006 132.954 120.382 132.765 120.716C132.574 121.039 132.293 121.302 131.957 121.471C131.575 121.659 131.153 121.751 130.727 121.741H129.035V124.78H128.174V117.512ZM130.704 120.973C131.098 120.998 131.485 120.865 131.781 120.604C132.023 120.338 132.157 119.992 132.157 119.632C132.157 119.273 132.023 118.926 131.781 118.66C131.636 118.529 131.466 118.428 131.28 118.364C131.095 118.299 130.899 118.273 130.704 118.285H129.035V120.973H130.704Z" fill="white"/>
<path d="M138.64 124.552C138.204 124.317 137.848 123.958 137.615 123.521C137.357 123.02 137.231 122.462 137.246 121.899V117.512H138.101V121.952C138.083 122.245 138.126 122.539 138.227 122.815C138.328 123.091 138.484 123.343 138.687 123.556C138.883 123.742 139.113 123.886 139.366 123.981C139.619 124.075 139.887 124.118 140.157 124.107C140.424 124.118 140.69 124.075 140.94 123.981C141.189 123.886 141.417 123.742 141.609 123.556C141.812 123.343 141.968 123.091 142.069 122.815C142.17 122.539 142.213 122.245 142.195 121.952V117.512H143.056V121.899C143.071 122.462 142.945 123.02 142.687 123.521C142.454 123.958 142.098 124.317 141.662 124.552C141.199 124.783 140.689 124.903 140.172 124.903C139.654 124.903 139.144 124.783 138.681 124.552H138.64Z" fill="white"/>
<path d="M149.551 118.303H147.009V117.53H152.989V118.303H150.424V124.798H149.563L149.551 118.303Z" fill="white"/>
<path d="M157.054 117.512H161.74V118.303H157.939V120.528H160.867V121.296H157.939V124.025H161.869V124.798H157.083L157.054 117.512Z" fill="white"/>
<path d="M170.812 124.78L168.557 121.729H167.005V124.78H166.144V117.512H168.68C169.106 117.504 169.527 117.597 169.91 117.781C170.243 117.952 170.523 118.212 170.718 118.531C170.912 118.859 171.011 119.234 171.005 119.615C171.018 120.073 170.873 120.521 170.595 120.886C170.316 121.251 169.922 121.513 169.477 121.629L171.819 124.78H170.812ZM167.005 120.962H168.68C169.075 120.987 169.464 120.857 169.764 120.599C169.891 120.472 169.991 120.32 170.056 120.153C170.122 119.985 170.152 119.806 170.144 119.626C170.151 119.447 170.12 119.269 170.054 119.102C169.987 118.936 169.886 118.785 169.758 118.66C169.611 118.532 169.44 118.434 169.255 118.373C169.07 118.312 168.874 118.288 168.68 118.303H167.017L167.005 120.962Z" fill="white"/>
<path d="M182.38 124.482C181.908 124.195 181.519 123.792 181.249 123.31L181.888 122.836C182.086 123.203 182.378 123.511 182.734 123.729C183.09 123.947 183.497 124.067 183.914 124.078C184.295 124.096 184.67 123.98 184.974 123.75C185.105 123.644 185.21 123.51 185.28 123.358C185.35 123.205 185.384 123.039 185.378 122.871C185.384 122.68 185.335 122.491 185.238 122.326C185.135 122.176 185.001 122.05 184.845 121.957C184.626 121.822 184.399 121.699 184.166 121.588L183.352 121.208C182.921 121.01 182.525 120.743 182.18 120.417C182.029 120.263 181.911 120.08 181.834 119.878C181.758 119.677 181.724 119.461 181.735 119.246C181.729 118.893 181.833 118.546 182.034 118.256C182.235 117.966 182.51 117.736 182.831 117.588C183.174 117.429 183.548 117.349 183.926 117.354C184.391 117.348 184.85 117.465 185.255 117.694C185.639 117.909 185.965 118.215 186.204 118.584L185.577 119.058C185.392 118.776 185.141 118.542 184.845 118.379C184.56 118.222 184.239 118.141 183.914 118.145C183.588 118.136 183.268 118.233 183 118.42C182.879 118.509 182.781 118.627 182.716 118.762C182.65 118.898 182.619 119.048 182.626 119.199C182.621 119.385 182.672 119.569 182.772 119.726C182.868 119.869 182.994 119.989 183.141 120.077C183.293 120.171 183.51 120.282 183.797 120.423L184.599 120.809C185.073 121.021 185.505 121.315 185.876 121.676C186.163 121.997 186.312 122.418 186.292 122.848C186.298 123.221 186.194 123.588 185.993 123.902C185.788 124.215 185.497 124.463 185.156 124.616C184.778 124.792 184.366 124.88 183.949 124.874C183.4 124.893 182.856 124.757 182.38 124.482Z" fill="white"/>
<path d="M192.202 124.406C191.632 124.084 191.161 123.615 190.837 123.047C190.586 122.619 190.422 122.145 190.355 121.654C190.287 121.162 190.318 120.662 190.445 120.183C190.572 119.703 190.792 119.253 191.094 118.859C191.395 118.465 191.772 118.135 192.202 117.887C193.069 117.386 194.099 117.247 195.068 117.5C196.037 117.753 196.868 118.378 197.379 119.24C197.713 119.82 197.889 120.477 197.889 121.146C197.889 121.815 197.713 122.473 197.379 123.053C197.051 123.619 196.575 124.087 196.003 124.406C195.425 124.732 194.772 124.904 194.108 124.904C193.444 124.904 192.791 124.732 192.213 124.406H192.202ZM195.575 123.72C196.01 123.462 196.368 123.092 196.612 122.649C196.854 122.183 196.981 121.665 196.981 121.14C196.981 120.615 196.854 120.098 196.612 119.632C196.369 119.191 196.01 118.825 195.575 118.572C195.128 118.321 194.624 118.189 194.111 118.189C193.598 118.189 193.094 118.321 192.647 118.572C192.213 118.824 191.855 119.188 191.61 119.626C191.364 120.092 191.235 120.611 191.235 121.137C191.235 121.664 191.364 122.183 191.61 122.649C191.998 123.315 192.634 123.801 193.378 124.002C194.123 124.202 194.916 124.101 195.587 123.72H195.575Z" fill="white"/>
<path d="M202.27 117.512H206.815V118.303H203.125V120.804H206.165V121.583H203.101V124.798H202.246L202.27 117.512Z" fill="white"/>
<path d="M212.66 118.303H210.106V117.53H216.086V118.303H213.521V124.798H212.66V118.303Z" fill="white"/>
<path d="M230.389 117.512L227.636 124.903H227.326L225.024 119.134L222.722 124.903H222.418L219.635 117.512H220.578L222.587 123.053L224.854 117.395H225.159L227.431 123.041L229.434 117.512H230.389Z" fill="white"/>
<path d="M238.302 123.304H234.735L234.149 124.78H233.247L236.392 117.395H236.714L239.859 124.78H238.946L238.302 123.304ZM236.544 118.959L235.086 122.537H238.015L236.544 118.959Z" fill="white"/>
<path d="M248.704 124.78L246.449 121.729H244.896V124.78H244.041V117.512H246.577C247.001 117.504 247.421 117.596 247.802 117.781C248.137 117.949 248.417 118.209 248.61 118.531C248.803 118.859 248.903 119.234 248.897 119.615C248.909 120.072 248.766 120.519 248.493 120.886C248.21 121.25 247.814 121.512 247.368 121.629L249.711 124.78H248.704ZM244.896 120.962H246.577C246.972 120.987 247.361 120.857 247.661 120.599C247.788 120.472 247.888 120.32 247.954 120.153C248.019 119.985 248.049 119.806 248.042 119.626C248.048 119.447 248.017 119.269 247.951 119.102C247.884 118.936 247.783 118.785 247.655 118.66C247.508 118.532 247.337 118.434 247.152 118.373C246.967 118.312 246.772 118.288 246.577 118.303H244.914L244.896 120.962Z" fill="white"/>
<path d="M253.746 117.512H258.432V118.303H254.631V120.528H257.559V121.296H254.631V124.025H258.561V124.798H253.77L253.746 117.512Z" fill="white"/>
</svg>
