<svg width="17" height="14" viewBox="0 0 17 14" fill="none" xmlns="http://www.w3.org/2000/svg">
<path d="M2.34153 13.5858C1.90299 13.5858 1.5277 13.4298 1.21567 13.1177C0.903639 12.8057 0.747358 12.4301 0.746826 11.9911V2.42283C0.746826 1.98429 0.903107 1.609 1.21567 1.29697C1.52823 0.984938 1.90352 0.828657 2.34153 0.828125H15.0992C15.5377 0.828125 15.9133 0.984406 16.2258 1.29697C16.5384 1.60953 16.6944 1.98482 16.6939 2.42283V11.9911C16.6939 12.4296 16.5379 12.8052 16.2258 13.1177C15.9138 13.4303 15.5383 13.5863 15.0992 13.5858H2.34153ZM8.72036 8.0043L15.0992 4.01754V2.42283L8.72036 6.4096L2.34153 2.42283V4.01754L8.72036 8.0043Z" fill="white"/>
</svg>
