<svg width="41" height="31" viewBox="0 0 41 31" fill="none" xmlns="http://www.w3.org/2000/svg">
<path d="M39.0571 0.0361328V2.29032C35.8256 3.45575 33.2932 5.2959 31.4599 7.81078C29.6267 10.295 28.71 12.8865 28.71 15.5854C28.71 16.1681 28.8032 16.5975 28.9897 16.8735C29.114 17.0575 29.2538 17.1496 29.4091 17.1496C29.5645 17.1496 29.7976 17.0422 30.1083 16.8275C31.1026 16.1221 32.361 15.7694 33.8836 15.7694C35.6547 15.7694 37.2238 16.4902 38.591 17.9316C39.9582 19.3424 40.6418 21.0292 40.6418 22.992C40.6418 25.0469 39.8495 26.8564 38.2648 28.4205C36.7112 29.9846 34.8157 30.7667 32.5785 30.7667C29.9685 30.7667 27.7157 29.7086 25.8203 27.5924C23.9249 25.4762 22.9772 22.6393 22.9772 19.0817C22.9772 14.9414 24.2667 11.2304 26.8457 7.94879C29.4247 4.66718 33.4952 2.02963 39.0571 0.0361328ZM16.6384 0.0361328V2.29032C13.4069 3.45575 10.8745 5.2959 9.04122 7.81078C7.20795 10.295 6.29132 12.8865 6.29132 15.5854C6.29132 16.1681 6.38454 16.5975 6.57097 16.8735C6.69526 17.0575 6.83509 17.1496 6.99045 17.1496C7.14581 17.1496 7.37885 17.0422 7.68958 16.8275C8.68389 16.1221 9.94232 15.7694 11.4649 15.7694C13.236 15.7694 14.8051 16.4902 16.1723 17.9316C17.5395 19.3424 18.2231 21.0292 18.2231 22.992C18.2231 25.0469 17.4308 26.8564 15.8461 28.4205C14.2925 29.9846 12.397 30.7667 10.1598 30.7667C7.54975 30.7667 5.29701 29.7086 3.40159 27.5924C1.50618 25.4762 0.558472 22.6393 0.558472 19.0817C0.558472 14.9414 1.84797 11.2304 4.42698 7.94879C7.00598 4.66718 11.0765 2.02963 16.6384 0.0361328Z" fill="url(#paint0_linear_4_551)"/>
<defs>
<linearGradient id="paint0_linear_4_551" x1="7.38129" y1="37.0926" x2="55.0569" y2="-14.4538" gradientUnits="userSpaceOnUse">
<stop stop-color="#C1272D"/>
<stop offset="1" stop-color="#040404"/>
</linearGradient>
</defs>
</svg>
