<svg width="97" height="18" viewBox="0 0 97 18" fill="none" xmlns="http://www.w3.org/2000/svg">
<path d="M9.02973 0.392822L10.9622 6.34037H17.2158L12.1565 10.0162L14.089 15.9637L9.02973 12.2879L3.97045 15.9637L5.90292 10.0162L0.843637 6.34037H7.09726L9.02973 0.392822Z" fill="#0F1B88"/>
<path d="M28.776 0.392822L30.5948 6.34037H36.4806L31.7189 10.0162L33.5377 15.9637L28.776 12.2879L24.0144 15.9637L25.8332 10.0162L21.0715 6.34037H26.9572L28.776 0.392822Z" fill="#0F1B88"/>
<path d="M48.5224 0.392822L50.4549 6.34037H56.7085L51.6492 10.0162L53.5817 15.9637L48.5224 12.2879L43.4631 15.9637L45.3956 10.0162L40.3363 6.34037H46.5899L48.5224 0.392822Z" fill="#0F1B88"/>
<path d="M68.2687 0.392822L70.0875 6.34037H75.9732L71.2115 10.0162L73.0303 15.9637L68.2687 12.2879L63.507 15.9637L65.3258 10.0162L60.5641 6.34037H66.4499L68.2687 0.392822Z" fill="#0F1B88"/>
<path d="M88.015 0.392822L89.9474 6.34037H96.2011L91.1418 10.0162L93.0742 15.9637L88.015 12.2879L82.9557 15.9637L84.8882 10.0162L79.8289 6.34037H86.0825L88.015 0.392822Z" fill="#0F1B88"/>
</svg>
